<?xml version="1.0" encoding="utf-8"?><svg viewBox="0 0 546.667 682.667" xmlns="http://www.w3.org/2000/svg" xmlns:xlink="http://www.w3.org/1999/xlink"><style>:root>svg{display:none}:root>svg:target{display:block}</style><svg viewBox="0 0 16 16" fill="none" id="magnifier" xmlns="http://www.w3.org/2000/svg"><circle cx="6.5" cy="6.5" r="5.75" stroke="#9e9fa2" stroke-width="1.5"/><path stroke="#9e9fa2" stroke-width="1.5" stroke-linecap="round" d="M11.061 11 15 14.939"/></svg><svg xml:space="preserve" viewBox="0 0 495.48 682.667" id="service__ico_gd" xmlns="http://www.w3.org/2000/svg"><path style="fill-opacity:1;fill-rule:nonzero;stroke:none" d="M2213.49 1472.81c-51.61 0-93.6 41.99-93.6 93.61s41.99 93.6 93.6 93.6c51.62 0 93.61-41.99 93.61-93.6 0-51.61-41.98-93.61-93.61-93.61zm0 353.86c-143.49 0-260.25-116.75-260.25-260.25 0-143.51 116.76-260.26 260.25-260.26 143.51 0 260.26 116.75 260.26 260.26s-116.75 260.25-260.26 260.25" transform="matrix(.13333 0 0 -.13333 0 682.667)"/><path style="fill-opacity:1;fill-rule:nonzero;stroke:none" d="m3540.08 4282.52-136.69-402.3-331.37 112.59 136.69 402.32c15.04 44.26 46.4 80.02 88.34 100.68 41.92 20.68 89.37 23.78 133.58 8.75 91.4-31.03 140.48-130.65 109.45-222.04zM3413.3 482.762c0-174.301-141.81-316.114-316.11-316.114H1340.74c-174.3 0-316.11 141.813-316.11 316.114V3320.05h227.89V2117.03c0-137.38 111.77-249.13 249.14-249.13 137.36 0 249.13 111.75 249.13 249.13v520.47c0 45.49 36.99 82.48 82.48 82.48 45.48 0 82.48-36.99 82.48-82.48v-268.47c0-137.37 111.76-249.13 249.13-249.13 137.36 0 249.12 111.76 249.12 249.13v947.1l999.32 3.92V482.762ZM1211.3 4341c71.96-21.49 145.8-35.2 220.18-41.03v-813.26H1211.3V4341Zm125.39 280.36c55.89-24.06 116.21-36.82 178.13-36.82 61.89 0 122.2 12.77 178.11 36.83l80.31-119.79c-168.16-50.82-348.71-50.82-516.88 0zm178.12 265.67 82.87-123.61c-26.63-8.08-54.49-12.24-82.86-12.24-28.39 0-56.26 4.15-82.89 12.23zm303.5-1400.33h-220.17v813.27c74.37 5.83 148.21 19.55 220.17 41.03v-854.3zm414.49-166.65c4.72-1.5 9.59-2.52 14.54-3.15v-947.86c0-45.48-36.99-82.48-82.48-82.48-45.48 0-82.48 37-82.48 82.48v268.48c0 137.37-111.76 249.12-249.12 249.12-137.37 0-249.13-111.75-249.13-249.12v-520.48c0-45.49-37.01-82.48-82.49-82.48-45.49 0-82.48 36.99-82.48 82.48v1203.01zm126.7 1373c.31 21.79 18.29 39.52 40.08 39.52 21.8 0 39.78-17.71 40.08-39.51l17-1206.36h-114.17zm658.91-858.02 331.36-112.59-80.1-235.74h-369.61ZM857.973 2728.17h-292.18c-140.563 0-254.926-114.35-254.926-254.93V1311.88c0-140.56 114.363-254.93 254.926-254.93h292.18V912.719H535.809c-203.567 0-369.172 165.611-369.172 369.181v1221.33c0 203.57 165.605 369.17 369.172 369.17h322.164zm0-1504.57h-292.18c-48.684 0-88.277 39.6-88.277 88.28v1161.36c0 48.68 39.593 88.28 88.277 88.28h292.18zM3559.88 4625.75l35.47 104.44c14.8 43.57-8.52 90.89-52.08 105.7-43.53 14.8-90.9-8.51-105.71-52.1l-35.43-104.27c-60.99 5.07-122.44-6.46-178.77-34.22-81.86-40.37-143.11-110.17-172.44-196.56l-326.87-962.04h-100.72l-17.04 1208.69c-1.57 112.39-94.28 203.84-206.69 203.84-112.39 0-205.14-91.44-206.72-203.83l-17.03-1208.7h-190.87v973a83.26 83.26 0 0 1-14.12 46.4l-386.84 576.96a83.325 83.325 0 0 1-69.21 36.93 83.294 83.294 0 0 1-69.2-36.93l-386.83-576.96a83.42 83.42 0 0 1-14.12-46.4v-973H841.219c-46.028 0-83.324-37.31-83.324-83.32 0-46.02 37.296-83.33 83.324-83.33h16.765v-281H535.82C240.363 3039.05 0 2798.69 0 2503.23V1281.9c0-295.459 240.375-535.822 535.82-535.822h322.164V482.762C857.984 216.57 1074.55 0 1340.74 0H3097.2c266.19 0 482.76 216.57 482.76 482.762V3320.05h16.76c46.03 0 83.33 37.31 83.33 83.33 0 46.01-37.3 83.32-83.33 83.32h-151.04l252.21 742.22c51.33 151.17-9.68 313.83-138.01 396.83" transform="matrix(.13333 0 0 -.13333 0 682.667)"/></svg><svg xml:space="preserve" viewBox="0 0 546.667 548" id="service__ico_im" xmlns="http://www.w3.org/2000/svg"><path style="fill-opacity:1;fill-rule:nonzero;stroke:none" d="M3596.76 3131.76c2.85-.32 5.66-.47 8.51-.47 20.24 0 39.81 8 54.26 22.5l413.99 413.94c21.05 21.06 28.04 52.42 17.89 80.43-10.16 28.01-35.59 47.62-65.24 50.31l-309.53 28.17-28.16 309.53c-2.7 29.65-22.31 55.08-50.32 65.19-28 10.16-59.37 3.21-80.43-17.89l-413.98-413.94a76.807 76.807 0 0 1-21.99-62.77l36.64-329.81-77.54-77.5c-286.29 261.88-661.8 427.7-1075.04 446.06v145.78c0 42.42-34.37 76.79-76.8 76.79-42.38 0-76.75-34.37-76.75-76.79v-145.75c-881.02-39.18-1590.551-748.71-1629.731-1629.72H76.762c-42.383 0-76.762-34.38-76.762-76.8 0-42.38 34.379-76.76 76.762-76.76h145.777C261.719 981.25 971.25 271.719 1852.27 232.539V86.789c0-42.418 34.37-76.789 76.75-76.789 42.43 0 76.8 34.371 76.8 76.79v145.749c880.98 39.18 1590.55 748.711 1629.73 1629.721h145.74c42.42 0 76.8 34.38 76.8 76.76 0 42.42-34.38 76.8-76.8 76.8h-145.74c-18.36 413.24-184.18 788.75-446.1 1075.08l77.54 77.5zm-46.33 727.22 19.1-210c3.36-36.87 32.58-66.13 69.49-69.49l210-19.1-271.99-271.95-268.71 29.84-29.88 268.75zm-68.55-1843.16h-108.17c-42.38 0-76.76-34.38-76.76-76.8 0-42.38 34.38-76.76 76.76-76.76h108.17c-38.91-796.32-679.73-1437.151-1476.06-1476.049v108.16c0 42.391-34.37 76.758-76.76 76.758-42.42 0-76.79-34.367-76.79-76.758v-108.16C1055.94 425.109 415.121 1065.94 376.211 1862.26h108.168c42.383 0 76.75 34.38 76.75 76.76 0 42.42-34.367 76.8-76.75 76.8H376.211c38.91 796.33 679.729 1437.15 1476.059 1476.05v-108.16c0-42.38 34.37-76.76 76.75-76.76 42.43 0 76.8 34.38 76.8 76.76v108.16c370.94-18.12 708.09-166.83 966.45-401.05l-231.02-231.02c-216.68 191.37-501.09 307.7-812.23 307.7-677.34 0-1228.43-551.1-1228.43-1228.48S1251.68 710.578 1929.02 710.578c677.39 0 1228.44 551.062 1228.44 1228.442 0 311.13-116.29 595.55-307.66 812.23l231.06 231.01c234.18-258.36 382.89-595.5 401.02-966.44zm-1607.11-131.06c15-15 34.61-22.5 54.25-22.5 19.65 0 39.34 7.5 54.3 22.5l416.95 416.96c77.5-100.51 123.79-226.25 123.79-362.7 0-328.08-266.91-595.04-595.04-595.04-328.08 0-595.04 266.96-595.04 595.04 0 328.13 266.96 595.04 595.04 595.04 136.45 0 262.19-46.25 362.7-123.79l-416.99-416.95c-29.96-30-29.96-78.6.04-108.56zm54.29 802.85c-412.77 0-748.59-335.82-748.59-748.59 0-412.77 335.82-748.59 748.59-748.59 412.78 0 748.56 335.82 748.56 748.59 0 178.79-63.05 343.09-168.05 471.95l231.56 231.53c163.64-188.64 262.82-434.69 262.82-703.48 0-592.69-482.19-1074.879-1074.89-1074.879-592.69 0-1074.88 482.189-1074.88 1074.879 0 592.7 482.19 1074.92 1074.88 1074.92 268.75 0 514.81-99.18 703.48-262.85l-231.52-231.52c-128.91 104.96-293.17 168.04-471.96 168.04z" transform="matrix(.13333 0 0 -.13333 0 548)"/></svg><svg xml:space="preserve" viewBox="0 0 506.667 428" id="service__ico_wd" xmlns="http://www.w3.org/2000/svg"><path style="fill-opacity:1;fill-rule:nonzero;stroke:none" d="M3734.1 3202.66H1075.98c-33.13 0-60-26.88-60-60v-275.98H691.988c-33.117 0-60-26.84-60-60v-171.09H197.621C88.629 2635.59 0 2546.91 0 2437.97V615.66c0-108.98 88.629-197.609 197.621-197.609H1313.63L1249.49 130H1045.9c-33.13 0-60.002-26.879-60.002-60 0-33.129 26.872-60 60.002-60h1054.3c33.12 0 60 26.871 60 60 0 33.121-26.88 60-60 60h-203.6l-64.14 288.051h1116.02c108.98 0 197.61 88.629 197.61 197.609v401.53h203.99c33.16 0 60 26.83 60 60v275.97h324.02c33.17 0 60 26.88 60 60v1729.5c0 33.12-26.87 60-60 60zM691.988 1017.19H2842.07V722.07H303.98v1609.49h328.008V1077.19c0-33.17 26.883-60 60-60zM1372.42 130l64.14 288.051h272.97L1773.63 130Zm1653.67 485.66c0-42.808-34.8-77.609-77.61-77.609H197.621c-42.82 0-77.621 34.801-77.621 77.609v1822.31c0 42.81 34.801 77.62 77.621 77.62h434.367v-64.03H243.98c-33.121 0-60-26.83-60-60V662.07c0-33.16 26.879-60 60-60h2658.09c33.16 0 60 26.84 60 60v355.12h64.02zm263.99 521.53H751.988v1609.49h263.992V1413.16c0-33.12 26.87-60 60-60h2214.1zm384.02 335.97H1135.98v1395.9H3674.1Zm0 1515.9H1135.98v93.602H3674.1Z" transform="matrix(.13333 0 0 -.13333 0 428)"/><path style="fill-opacity:1;fill-rule:nonzero;stroke:none" d="M1260 1537.19h592.5c33.16 0 60 26.83 60 60v1147.89c0 33.12-26.84 60-60 60H1260c-33.16 0-60-26.88-60-60V1597.19c0-33.17 26.84-60 60-60zm60 1147.89h472.5V1657.19H1320ZM2958.4 1537.19h592.5c33.12 0 60 26.83 60 60v1147.89c0 33.12-26.88 60-60 60h-592.5c-33.17 0-60-26.88-60-60V1597.19c0-33.17 26.83-60 60-60zm60 1147.89h472.5V1657.19h-472.5zM2109.18 1537.19h592.54c33.12 0 60 26.83 60 60v1147.89c0 33.12-26.88 60-60 60h-592.54c-33.13 0-60-26.88-60-60V1597.19c0-33.17 26.87-60 60-60zm60 1147.89h472.539V1657.19H2169.18Z" transform="matrix(.13333 0 0 -.13333 0 428)"/></svg></svg>