<?xml version="1.0" encoding="UTF-8" standalone="no"?>
<svg
   xmlns:dc="http://purl.org/dc/elements/1.1/"
   xmlns:cc="http://creativecommons.org/ns#"
   xmlns:rdf="http://www.w3.org/1999/02/22-rdf-syntax-ns#"
   xmlns:svg="http://www.w3.org/2000/svg"
   xmlns="http://www.w3.org/2000/svg"
   viewBox="0 0 506.66666 428"
   height="428"
   width="506.66666"
   xml:space="preserve"
   id="svg2"
   version="1.1"><metadata
     id="metadata8"><rdf:RDF><cc:Work
         rdf:about=""><dc:format>image/svg+xml</dc:format><dc:type
           rdf:resource="http://purl.org/dc/dcmitype/StillImage" /></cc:Work></rdf:RDF></metadata><defs
     id="defs6" /><g
     transform="matrix(1.3333333,0,0,-1.3333333,0,428)"
     id="g10"><g
       transform="scale(0.1)"
       id="g12"><path
         id="path14"
         style="fill-opacity:1;fill-rule:nonzero;stroke:none"
         d="M 3734.1,3202.66 H 1075.98 c -33.13,0 -60,-26.88 -60,-60 V 2866.68 H 691.988 c -33.117,0 -60,-26.84 -60,-60 V 2635.59 H 197.621 C 88.6289,2635.59 0,2546.91 0,2437.97 V 615.66 C 0,506.68 88.6289,418.051 197.621,418.051 H 1313.63 L 1249.49,130 H 1045.9 c -33.13,0 -60.002,-26.879 -60.002,-60 0,-33.1289 26.872,-60 60.002,-60 h 1054.3 c 33.12,0 60,26.8711 60,60 0,33.121 -26.88,60 -60,60 h -203.6 l -64.14,288.051 h 1116.02 c 108.98,0 197.61,88.629 197.61,197.609 v 401.53 h 203.99 c 33.16,0 60,26.83 60,60 v 275.97 h 324.02 c 33.17,0 60,26.88 60,60 v 1729.5 c 0,33.12 -26.87,60 -60,60 z M 691.988,1017.19 H 2842.07 V 722.07 H 303.98 V 2331.56 H 631.988 V 1077.19 c 0,-33.17 26.883,-60 60,-60 z M 1372.42,130 l 64.14,288.051 h 272.97 L 1773.63,130 Z m 1653.67,485.66 c 0,-42.808 -34.8,-77.609 -77.61,-77.609 H 197.621 c -42.82,0 -77.621,34.801 -77.621,77.609 v 1822.31 c 0,42.81 34.801,77.62 77.621,77.62 h 434.367 v -64.03 H 243.98 c -33.121,0 -60,-26.83 -60,-60 V 662.07 c 0,-33.16 26.879,-60 60,-60 h 2658.09 c 33.16,0 60,26.84 60,60 v 355.12 h 64.02 z m 263.99,521.53 H 751.988 V 2746.68 H 1015.98 V 1413.16 c 0,-33.12 26.87,-60 60,-60 h 2214.1 z m 384.02,335.97 H 1135.98 v 1395.9 H 3674.1 Z m 0,1515.9 H 1135.98 v 93.6016 H 3674.1 Z" /><path
         id="path16"
         style="fill-opacity:1;fill-rule:nonzero;stroke:none"
         d="m 1260,1537.19 h 592.5 c 33.16,0 60,26.83 60,60 v 1147.89 c 0,33.12 -26.84,60 -60,60 H 1260 c -33.16,0 -60,-26.88 -60,-60 V 1597.19 c 0,-33.17 26.84,-60 60,-60 z m 60,1147.89 h 472.5 V 1657.19 H 1320 Z" /><path
         id="path18"
         style="fill-opacity:1;fill-rule:nonzero;stroke:none"
         d="m 2958.4,1537.19 h 592.5 c 33.12,0 60,26.83 60,60 v 1147.89 c 0,33.12 -26.88,60 -60,60 h -592.5 c -33.17,0 -60,-26.88 -60,-60 V 1597.19 c 0,-33.17 26.83,-60 60,-60 z m 60,1147.89 h 472.5 V 1657.19 h -472.5 z" /><path
         id="path20"
         style="fill-opacity:1;fill-rule:nonzero;stroke:none"
         d="m 2109.18,1537.19 h 592.54 c 33.12,0 60,26.83 60,60 v 1147.89 c 0,33.12 -26.88,60 -60,60 h -592.54 c -33.13,0 -60,-26.88 -60,-60 V 1597.19 c 0,-33.17 26.87,-60 60,-60 z m 60,1147.89 h 472.539 V 1657.19 H 2169.18 Z" /></g></g></svg>