<?xml version="1.0" encoding="UTF-8" standalone="no"?>
<svg
   xmlns:dc="http://purl.org/dc/elements/1.1/"
   xmlns:cc="http://creativecommons.org/ns#"
   xmlns:rdf="http://www.w3.org/1999/02/22-rdf-syntax-ns#"
   xmlns:svg="http://www.w3.org/2000/svg"
   xmlns="http://www.w3.org/2000/svg"
   viewBox="0 0 546.66669 548"
   height="548"
   width="546.66669"
   xml:space="preserve"
   id="svg2"
   version="1.1"><metadata
     id="metadata8"><rdf:RDF><cc:Work
         rdf:about=""><dc:format>image/svg+xml</dc:format><dc:type
           rdf:resource="http://purl.org/dc/dcmitype/StillImage" /></cc:Work></rdf:RDF></metadata><defs
     id="defs6" /><g
     transform="matrix(1.3333333,0,0,-1.3333333,0,548)"
     id="g10"><g
       transform="scale(0.1)"
       id="g12"><path
         id="path14"
         style="fill-opacity:1;fill-rule:nonzero;stroke:none"
         d="m 3596.76,3131.76 c 2.85,-0.32 5.66,-0.47 8.51,-0.47 20.24,0 39.81,8 54.26,22.5 l 413.99,413.94 c 21.05,21.06 28.04,52.42 17.89,80.43 -10.16,28.01 -35.59,47.62 -65.24,50.31 l -309.53,28.17 -28.16,309.53 c -2.7,29.65 -22.31,55.08 -50.32,65.19 -28,10.16 -59.37,3.21 -80.43,-17.89 l -413.98,-413.94 c -16.48,-16.49 -24.57,-39.61 -21.99,-62.77 l 36.64,-329.81 -77.54,-77.5 c -286.29,261.88 -661.8,427.7 -1075.04,446.06 v 145.78 c 0,42.42 -34.37,76.79 -76.8,76.79 -42.38,0 -76.75,-34.37 -76.75,-76.79 V 3645.54 C 971.25,3606.36 261.719,2896.83 222.539,2015.82 H 76.7617 C 34.3789,2015.82 0,1981.44 0,1939.02 c 0,-42.38 34.3789,-76.76 76.7617,-76.76 H 222.539 C 261.719,981.25 971.25,271.719 1852.27,232.539 V 86.7891 c 0,-42.418 34.37,-76.7891 76.75,-76.7891 42.43,0 76.8,34.3711 76.8,76.7891 V 232.539 c 880.98,39.18 1590.55,748.711 1629.73,1629.721 h 145.74 c 42.42,0 76.8,34.38 76.8,76.76 0,42.42 -34.38,76.8 -76.8,76.8 h -145.74 c -18.36,413.24 -184.18,788.75 -446.1,1075.08 l 77.54,77.5 z m -46.33,727.22 19.1,-210 c 3.36,-36.87 32.58,-66.13 69.49,-69.49 l 210,-19.1 -271.99,-271.95 -268.71,29.84 -29.88,268.75 z m -68.55,-1843.16 h -108.17 c -42.38,0 -76.76,-34.38 -76.76,-76.8 0,-42.38 34.38,-76.76 76.76,-76.76 h 108.17 C 3442.97,1065.94 2802.15,425.109 2005.82,386.211 v 108.16 c 0,42.391 -34.37,76.758 -76.76,76.758 -42.42,0 -76.79,-34.367 -76.79,-76.758 V 386.211 C 1055.94,425.109 415.121,1065.94 376.211,1862.26 h 108.168 c 42.383,0 76.75,34.38 76.75,76.76 0,42.42 -34.367,76.8 -76.75,76.8 H 376.211 c 38.91,796.33 679.729,1437.15 1476.059,1476.05 v -108.16 c 0,-42.38 34.37,-76.76 76.75,-76.76 42.43,0 76.8,34.38 76.8,76.76 v 108.16 c 370.94,-18.12 708.09,-166.83 966.45,-401.05 L 2741.25,2859.8 c -216.68,191.37 -501.09,307.7 -812.23,307.7 -677.34,0 -1228.43,-551.1 -1228.43,-1228.48 0,-677.38 551.09,-1228.442 1228.43,-1228.442 677.39,0 1228.44,551.062 1228.44,1228.442 0,311.13 -116.29,595.55 -307.66,812.23 l 231.06,231.01 c 234.18,-258.36 382.89,-595.5 401.02,-966.44 z M 1874.77,1884.76 c 15,-15 34.61,-22.5 54.25,-22.5 19.65,0 39.34,7.5 54.3,22.5 l 416.95,416.96 c 77.5,-100.51 123.79,-226.25 123.79,-362.7 0,-328.08 -266.91,-595.04 -595.04,-595.04 -328.08,0 -595.04,266.96 -595.04,595.04 0,328.13 266.96,595.04 595.04,595.04 136.45,0 262.19,-46.25 362.7,-123.79 l -416.99,-416.95 c -29.96,-30 -29.96,-78.6 0.04,-108.56 z m 54.29,802.85 c -412.77,0 -748.59,-335.82 -748.59,-748.59 0,-412.77 335.82,-748.59 748.59,-748.59 412.78,0 748.56,335.82 748.56,748.59 0,178.79 -63.05,343.09 -168.05,471.95 l 231.56,231.53 c 163.64,-188.64 262.82,-434.69 262.82,-703.48 0,-592.69 -482.19,-1074.879 -1074.89,-1074.879 -592.69,0 -1074.88,482.189 -1074.88,1074.879 0,592.7 482.19,1074.92 1074.88,1074.92 268.75,0 514.81,-99.18 703.48,-262.85 l -231.52,-231.52 c -128.91,104.96 -293.17,168.04 -471.96,168.04 z" /></g></g></svg>