<?xml version="1.0" encoding="UTF-8" standalone="no"?>
<svg
   xmlns:dc="http://purl.org/dc/elements/1.1/"
   xmlns:cc="http://creativecommons.org/ns#"
   xmlns:rdf="http://www.w3.org/1999/02/22-rdf-syntax-ns#"
   xmlns:svg="http://www.w3.org/2000/svg"
   xmlns="http://www.w3.org/2000/svg"
   viewBox="0 0 495.48001 682.66669"
   height="682.66669"
   width="495.48001"
   xml:space="preserve"
   id="svg2"
   version="1.1"><metadata
     id="metadata8"><rdf:RDF><cc:Work
         rdf:about=""><dc:format>image/svg+xml</dc:format><dc:type
           rdf:resource="http://purl.org/dc/dcmitype/StillImage" /></cc:Work></rdf:RDF></metadata><defs
     id="defs6" /><g
     transform="matrix(1.3333333,0,0,-1.3333333,0,682.66667)"
     id="g10"><g
       transform="scale(0.1)"
       id="g12"><path
         id="path14"
         style="fill-opacity:1;fill-rule:nonzero;stroke:none"
         d="m 2213.49,1472.81 c -51.61,0 -93.6,41.99 -93.6,93.61 0,51.62 41.99,93.6 93.6,93.6 51.62,0 93.61,-41.99 93.61,-93.6 0,-51.61 -41.98,-93.61 -93.61,-93.61 z m 0,353.86 c -143.49,0 -260.25,-116.75 -260.25,-260.25 0,-143.51 116.76,-260.26 260.25,-260.26 143.51,0 260.26,116.75 260.26,260.26 0,143.51 -116.75,260.25 -260.26,260.25" /><path
         id="path16"
         style="fill-opacity:1;fill-rule:nonzero;stroke:none"
         d="m 3540.08,4282.52 -136.69,-402.3 -331.37,112.59 136.69,402.32 c 15.04,44.26 46.4,80.02 88.34,100.68 41.92,20.68 89.37,23.78 133.58,8.75 91.4,-31.03 140.48,-130.65 109.45,-222.04 z M 3413.3,482.762 c 0,-174.301 -141.81,-316.114 -316.11,-316.114 H 1340.74 c -174.3,0 -316.11,141.813 -316.11,316.114 V 3320.05 h 227.89 V 2117.03 c 0,-137.38 111.77,-249.13 249.14,-249.13 137.36,0 249.13,111.75 249.13,249.13 v 520.47 c 0,45.49 36.99,82.48 82.48,82.48 45.48,0 82.48,-36.99 82.48,-82.48 v -268.47 c 0,-137.37 111.76,-249.13 249.13,-249.13 137.36,0 249.12,111.76 249.12,249.13 v 947.1 l 999.32,3.92 V 482.762 Z M 1211.3,4341 c 71.96,-21.49 145.8,-35.2 220.18,-41.03 V 3486.71 H 1211.3 V 4341 Z m 125.39,280.36 c 55.89,-24.06 116.21,-36.82 178.13,-36.82 61.89,0 122.2,12.77 178.11,36.83 l 80.31,-119.79 c -168.16,-50.82 -348.71,-50.82 -516.88,0 z m 178.12,265.67 82.87,-123.61 c -26.63,-8.08 -54.49,-12.24 -82.86,-12.24 -28.39,0 -56.26,4.15 -82.89,12.23 z m 303.5,-1400.33 h -220.17 v 813.27 c 74.37,5.83 148.21,19.55 220.17,41.03 v -854.3 z m 414.49,-166.65 c 4.72,-1.5 9.59,-2.52 14.54,-3.15 v -947.86 c 0,-45.48 -36.99,-82.48 -82.48,-82.48 -45.48,0 -82.48,37 -82.48,82.48 v 268.48 c 0,137.37 -111.76,249.12 -249.12,249.12 -137.37,0 -249.13,-111.75 -249.13,-249.12 v -520.48 c 0,-45.49 -37.01,-82.48 -82.49,-82.48 -45.49,0 -82.48,36.99 -82.48,82.48 v 1203.01 z m 126.7,1373 c 0.31,21.79 18.29,39.52 40.08,39.52 21.8,0 39.78,-17.71 40.08,-39.51 l 17,-1206.36 h -114.17 z m 658.91,-858.02 331.36,-112.59 -80.1,-235.74 H 2900.06 Z M 857.973,2728.17 h -292.18 c -140.563,0 -254.926,-114.35 -254.926,-254.93 V 1311.88 c 0,-140.56 114.363,-254.93 254.926,-254.93 h 292.18 V 912.719 H 535.809 c -203.567,0 -369.172,165.611 -369.172,369.181 v 1221.33 c 0,203.57 165.605,369.17 369.172,369.17 h 322.164 z m 0,-1504.57 h -292.18 c -48.684,0 -88.277,39.6 -88.277,88.28 v 1161.36 c 0,48.68 39.593,88.28 88.277,88.28 h 292.18 z m 2701.907,3402.15 35.47,104.44 c 14.8,43.57 -8.52,90.89 -52.08,105.7 -43.53,14.8 -90.9,-8.51 -105.71,-52.1 l -35.43,-104.27 c -60.99,5.07 -122.44,-6.46 -178.77,-34.22 -81.86,-40.37 -143.11,-110.17 -172.44,-196.56 L 2724.05,3486.7 h -100.72 l -17.04,1208.69 c -1.57,112.39 -94.28,203.84 -206.69,203.84 -112.39,0 -205.14,-91.44 -206.72,-203.83 l -17.03,-1208.7 h -190.87 v 973 c 0,16.53 -4.91,32.67 -14.12,46.4 l -386.84,576.96 c -15.48,23.08 -41.42,36.93 -69.21,36.93 -27.78,0 -53.74,-13.85 -69.2,-36.93 L 1058.78,4506.1 c -9.19,-13.73 -14.12,-29.87 -14.12,-46.4 v -973 H 841.219 c -46.028,0 -83.324,-37.31 -83.324,-83.32 0,-46.02 37.296,-83.33 83.324,-83.33 h 16.765 v -281 H 535.82 C 240.363,3039.05 0,2798.69 0,2503.23 V 1281.9 C 0,986.441 240.375,746.078 535.82,746.078 H 857.984 V 482.762 C 857.984,216.57 1074.55,0 1340.74,0 H 3097.2 c 266.19,0 482.76,216.57 482.76,482.762 V 3320.05 h 16.76 c 46.03,0 83.33,37.31 83.33,83.33 0,46.01 -37.3,83.32 -83.33,83.32 h -151.04 l 252.21,742.22 c 51.33,151.17 -9.68,313.83 -138.01,396.83" /></g></g></svg>